<svg width="23" height="26" viewBox="0 0 23 26" fill="none" xmlns="http://www.w3.org/2000/svg">
<path d="M11.2631 0.329035C9.97501 2.04341 8.97296 4.15997 8.57055 6.0145C8.39894 6.80263 8.33582 7.35716 8.33582 8.07419C8.33385 8.66325 8.35357 8.8095 8.49165 9.2381C8.64354 9.70528 8.82107 10.0303 9.44834 10.9992C10.3025 12.3195 10.5668 12.805 10.8844 13.6398C11.1783 14.4178 11.4051 15.4395 11.4722 16.3008C11.4899 16.5384 11.5077 16.4876 11.5471 16.0834C11.632 15.2303 11.8351 14.3589 12.135 13.5748C12.2928 13.1604 12.6419 12.4475 12.8885 12.0351C12.997 11.8564 13.2731 11.4217 13.5019 11.0683C14.1115 10.1339 14.3048 9.7845 14.4646 9.34372C14.6914 8.71607 14.7269 8.0681 14.5967 7.01794C14.36 5.12685 13.5789 3.11794 12.3224 1.1781C12.0206 0.71294 11.5314 0.040596 11.4959 0.040596C11.488 0.040596 11.3834 0.170597 11.2631 0.329035Z" fill="#F0E3CE"/>
<path d="M4.11268 10.0343C3.49133 10.1054 2.90942 10.2761 2.37683 10.5421C1.48721 10.987 0.828376 11.6471 0.420057 12.5023C0.16757 13.0345 0.0117382 13.715 0.00976562 14.3C0.00976562 14.9642 0.222802 15.9392 0.495014 16.5018C0.852047 17.2412 1.56808 18.0375 2.37091 18.5859C3.40256 19.2928 4.52692 19.5467 5.59802 19.3171C6.57838 19.1059 7.21551 18.5209 7.45222 17.6129C7.49759 17.4382 7.50153 17.3793 7.50351 17.0523C7.50351 16.6623 7.48575 16.5404 7.38712 16.2378C7.18987 15.6325 6.76182 15.1571 6.25882 14.9804C5.61774 14.757 4.8445 14.9621 4.46774 15.4537C4.35728 15.5959 4.23301 15.8518 4.18764 16.0265C4.13635 16.2276 4.1403 16.6014 4.1975 16.8045C4.32572 17.2656 4.60582 17.5865 5.03387 17.7653C5.1246 17.8018 5.19956 17.8404 5.20351 17.8506C5.21929 17.9034 4.94905 17.9095 4.79124 17.8628C4.35136 17.7307 3.98841 17.2778 3.82272 16.6603C3.76354 16.4409 3.75959 15.864 3.81483 15.6507C3.91148 15.2851 4.06731 15.0048 4.32966 14.7346C4.9885 14.0501 5.88206 13.8551 6.99459 14.1476C7.60016 14.3081 8.18207 14.6189 8.68507 15.0515C9.26894 15.5553 9.67332 16.2479 9.82323 16.9975C9.84493 17.1092 9.86268 17.229 9.86268 17.2615C9.86268 17.3814 9.87649 17.3915 9.96723 17.3448C10.1783 17.2331 10.6576 17.0929 10.9634 17.0523C11.0403 17.0421 11.0659 17.03 11.0659 17.0036C11.0659 16.9304 10.9614 16.3637 10.8864 16.0265C10.5038 14.3101 9.81731 12.9207 8.83498 11.8746C7.90393 10.8834 6.77366 10.2761 5.46388 10.0648C5.22126 10.0242 4.36122 10.0059 4.11268 10.0343Z" fill="#F0E3CE"/>
<path d="M17.7529 10.0364C16.9816 10.1197 16.1551 10.3979 15.4785 10.8062C13.6697 11.895 12.4467 13.9506 11.9832 16.6765C11.9555 16.837 11.9338 16.9853 11.9338 17.0036C11.9338 17.03 11.9595 17.0422 12.0384 17.0523C12.3422 17.0929 12.8215 17.2331 13.0326 17.3448C13.1233 17.3915 13.1371 17.3814 13.1371 17.2615C13.1371 17.1661 13.2121 16.8106 13.2771 16.6034C13.3521 16.3617 13.5513 15.9534 13.7012 15.7401C14.2358 14.9744 15.0781 14.3934 16.0052 14.1476C17.1177 13.8551 18.0113 14.0501 18.6701 14.7347C18.9325 15.0048 19.0883 15.2851 19.185 15.6508C19.2402 15.864 19.2362 16.4409 19.1771 16.6603C19.0114 17.2778 18.6484 17.7308 18.2085 17.8628C18.0507 17.9095 17.7805 17.9034 17.7963 17.8506C17.8002 17.8404 17.8752 17.8019 17.9659 17.7653C18.394 17.5865 18.6741 17.2656 18.8023 16.8045C18.8595 16.6014 18.8634 16.2276 18.8121 16.0265C18.7668 15.8519 18.6425 15.5959 18.532 15.4537C18.1553 14.9622 17.382 14.757 16.741 14.9804C16.238 15.1572 15.8099 15.6325 15.6127 16.2378C15.514 16.5404 15.4963 16.6623 15.4963 17.0523C15.4982 17.3794 15.5022 17.4383 15.5476 17.6129C15.6856 18.1451 15.9717 18.5798 16.3721 18.8744C17.0171 19.3456 18.0211 19.5162 18.9857 19.3151C20.1949 19.0653 21.5224 18.0903 22.2819 16.8979C22.6389 16.3394 22.8618 15.6304 22.9644 14.7367C23.0472 14.0136 22.9032 13.1828 22.5797 12.5023C22.1714 11.6472 21.5126 10.987 20.6229 10.5422C20.0746 10.2679 19.4907 10.0994 18.8595 10.0344C18.6208 10.01 17.9935 10.012 17.7529 10.0364Z" fill="#F0E3CE"/>
<path d="M10.8923 17.5825C10.1013 17.7003 9.46814 18.0375 9.27483 18.4437C9.20579 18.5879 9.19198 18.7992 9.2413 18.9515C9.30047 19.1343 9.48787 19.3436 9.72852 19.4959C9.99481 19.6665 10.3242 19.7864 10.7404 19.8676C11.0107 19.9204 11.6656 19.9428 11.9713 19.9083C12.8313 19.8128 13.5237 19.4614 13.7249 19.0186C13.7999 18.852 13.8018 18.6265 13.7249 18.46C13.5336 18.0375 12.9024 17.6983 12.0936 17.5825C11.8214 17.5418 11.1547 17.5418 10.8923 17.5825Z" fill="#F0E3CE"/>
<path d="M10.2965 20.4709C10.2965 20.8325 10.2176 21.4094 10.0993 21.9294C10.0164 22.2909 9.97302 22.4229 9.85664 22.6586C9.77182 22.8272 9.72645 22.8922 9.57654 23.0465C9.4286 23.2029 9.37139 23.2456 9.23134 23.3147C9.13863 23.3594 9.00253 23.4122 8.9256 23.4304C8.77568 23.469 8.42457 23.4812 8.29635 23.4548C8.18983 23.4304 8.20759 23.4609 8.39301 23.6031C8.57054 23.7392 8.79738 23.8611 9.0045 23.9281C9.21753 23.9972 9.58443 24.0073 9.80338 23.9504C10.2137 23.8448 10.5865 23.5604 10.8429 23.1644C10.8824 23.1034 10.9218 23.0547 10.9297 23.0547C10.9554 23.0547 10.9534 23.0648 10.9001 23.2151C10.8114 23.469 10.7798 23.6722 10.7818 23.9992C10.7818 24.4847 10.8626 24.8178 11.1033 25.3195C11.2315 25.5856 11.4623 25.9594 11.4978 25.9594C11.5313 25.9594 11.7996 25.5226 11.9042 25.3012C12.1251 24.832 12.2138 24.4562 12.2158 23.9992C12.2158 23.6742 12.1921 23.5239 12.0994 23.2314C12.0718 23.144 12.0521 23.0669 12.058 23.0628C12.0639 23.0567 12.1054 23.1054 12.1527 23.1704C12.3736 23.4812 12.559 23.6579 12.8273 23.8062C13.062 23.9383 13.1883 23.9708 13.4822 23.9829C13.711 23.9911 13.7603 23.987 13.928 23.9423C14.2081 23.8672 14.573 23.6661 14.7269 23.4995L14.7841 23.4365L14.7052 23.4548C14.577 23.4812 14.2239 23.469 14.0779 23.4325C13.494 23.2883 13.1192 22.8475 12.9319 22.0858C12.7977 21.5434 12.7247 21.06 12.709 20.6111C12.703 20.4364 12.6912 20.2922 12.6853 20.2922C12.6794 20.2922 12.563 20.3165 12.4269 20.347C12.1843 20.4019 12.1685 20.4039 11.4998 20.4039C10.8331 20.4039 10.8133 20.4019 10.5687 20.347C10.4307 20.3165 10.3123 20.2922 10.3064 20.2922C10.3005 20.2922 10.2965 20.3734 10.2965 20.4709Z" fill="#F0E3CE"/>
</svg>
